<?xml version="1.0" encoding="UTF-8"?>
<svg xmlns="http://www.w3.org/2000/svg" xmlns:xlink="http://www.w3.org/1999/xlink"
     width="500" height="500.0" viewBox="-1.05 -1.05 2.1 2.1">
<defs>
</defs>
<circle cx="0.0" cy="0.0" r="1.0" fill="black" />
<circle cx="3.0558824418816496e-17" cy="0.4990634759359636" r="0.03749217482858408" fill="red" />
<circle cx="0.4993752605683015" cy="-0.49937526056830145" r="0.025010398445719784" fill="green" />
<circle cx="-0.49937526056830145" cy="0.4993752605683015" r="0.025010398445719784" fill="blue" />
<path d="M-0.08910117297915665,0.9960225805541447 A2.7338641813323212,2.7338641813323212,0,0,1,0.6918408990065543,-0.7220499778144187 A2.978097267576109,2.978097267576109,0,0,0,-0.0891011729791571,0.9960225805541478 Z" fill="white" />
<path d="M0.4542841654169961,0.8908568330833991 A0.8001472912343258,0.8001472912343258,0,0,0,-0.7619764731093039,0.6476047053781392 A0.7813918409247437,0.7813918409247437,0,0,1,0.4542841654169961,0.8908568330833991 Z" fill="white" />
<path d="M-0.49736253543719755,0.5026655877186599 A66.67166659166962,66.67166659166962,0,0,0,0.5026655877186741,-0.49736253543720466 A0.3535533905932738,0.3535533905932738,0,0,1,0.4973625354364596,-0.5026655877179524 A66.67166659166683,66.67166659166683,0,0,0,-0.5026655877166917,0.4973625354351867 A0.3535533905932737,0.3535533905932737,0,0,1,-0.49736253543646713,0.5026655877179448 Z" fill="cyan" />
<circle cx="0.0" cy="0.0" r="1.0" fill="black" />
<circle cx="0.4990634759359636" cy="0.0" r="0.03749217482858408" fill="white" />
<circle cx="0.24953173796798186" cy="0.43220164826150836" r="0.03749217482858408" fill="white" />
<circle cx="-0.2495317379679817" cy="0.4322016482615085" r="0.03749217482858408" fill="white" />
<circle cx="-0.4990634759359636" cy="6.111764883763299e-17" r="0.03749217482858408" fill="white" />
<circle cx="-0.2495317379679821" cy="-0.43220164826150825" r="0.03749217482858408" fill="white" />
<circle cx="0.24953173796798186" cy="-0.43220164826150836" r="0.03749217482858408" fill="white" />
<path d="M0.9605551275463989,-0.2780896383260645 A1.0689768336518908,1.0689768336518908,0,0,0,0.23944487245360135,0.9709099613536161 A1.0147508715745757,1.0147508715745757,0,0,1,0.960555127546399,-0.27808963832606437 Z" fill="cyan" />
<path d="M0.7211102550927984,0.6928203230275509 A1.0689768336518912,1.0689768336518912,0,0,0,-0.7211102550927977,0.6928203230275513 A1.014750871574576,1.014750871574576,0,0,1,0.7211102550927981,0.6928203230275506 Z" fill="cyan" />
<path d="M-0.2394448724536009,0.9709099613536157 A1.0689768336518914,1.0689768336518914,0,0,0,-0.9605551275463993,-0.2780896383260639 A1.0147508715745763,1.0147508715745763,0,0,1,-0.2394448724536007,0.9709099613536152 Z" fill="cyan" />
<path d="M-0.9605551275463988,0.2780896383260648 A1.0689768336518914,1.0689768336518914,0,0,0,-0.23944487245360135,-0.9709099613536153 A1.0147508715745759,1.0147508715745759,0,0,1,-0.9605551275463987,0.2780896383260646 Z" fill="cyan" />
<path d="M-0.721110255092798,-0.6928203230275506 A1.0689768336518919,1.0689768336518919,0,0,0,0.7211102550927979,-0.6928203230275514 A1.0147508715745766,1.0147508715745766,0,0,1,-0.7211102550927984,-0.6928203230275509 Z" fill="cyan" />
<path d="M0.23944487245360113,-0.9709099613536152 A1.0689768336518914,1.0689768336518914,0,0,0,0.960555127546399,0.2780896383260646 A1.014750871574576,1.014750871574576,0,0,1,0.23944487245360102,-0.9709099613536147 Z" fill="cyan" />
</svg>